<svg xmlns="http://www.w3.org/2000/svg" xmlns:xlink="http://www.w3.org/1999/xlink" id="Layer_1" style="enable-background:new 0 0 512 512;" version="1.1" viewBox="0 0 512 512" xml:space="preserve"><style type="text/css">
	.st0{fill:#ffffff;}
</style><g><g><path class="st0" d="M388.3,201.9h-196c-9.9,0-17.9-9-17.9-20s8-20,17.9-20h196c9.9,0,17.9,9,17.9,20S398.2,201.9,388.3,201.9z" fill="#ffffff"/></g><circle class="st0" cx="131.2" cy="181.9" r="25.5" fill="#ffffff"/><g><path class="st0" d="M388.3,276h-196c-9.9,0-17.9-9-17.9-20s8-20,17.9-20h196c9.9,0,17.9,9,17.9,20S398.2,276,388.3,276z" fill="#ffffff"/></g><circle class="st0" cx="131.2" cy="256" r="25.5" fill="#ffffff"/><g><path class="st0" d="M388.3,350.1h-196c-9.9,0-17.9-9-17.9-20s8-20,17.9-20h196c9.9,0,17.9,9,17.9,20S398.2,350.1,388.3,350.1z" fill="#ffffff"/></g><circle class="st0" cx="131.2" cy="330.1" r="25.5" fill="#ffffff"/></g></svg>