<svg width="25" height="24" viewBox="0 0 25 24" fill="none" xmlns="http://www.w3.org/2000/svg">
<path opacity="0.8" d="M16.46 12.71C17.4404 11.9387 18.156 10.8809 18.5072 9.68394C18.8585 8.48697 18.8279 7.21027 18.4198 6.03147C18.0117 4.85267 17.2463 3.83039 16.2301 3.10686C15.2139 2.38332 13.9974 1.99451 12.75 1.99451C11.5025 1.99451 10.2861 2.38332 9.26993 3.10686C8.25374 3.83039 7.48834 4.85267 7.08021 6.03147C6.67208 7.21027 6.64151 8.48697 6.99276 9.68394C7.34401 10.8809 8.0596 11.9387 9.04 12.71C7.36007 13.383 5.89428 14.4994 4.79889 15.9399C3.70349 17.3805 3.01956 19.0913 2.82 20.89C2.80555 21.0213 2.81711 21.1542 2.85402 21.2811C2.89093 21.4079 2.95246 21.5263 3.03511 21.6293C3.20202 21.8375 3.44478 21.9708 3.71 22C3.97521 22.0292 4.24116 21.9518 4.44932 21.7849C4.65749 21.618 4.79082 21.3752 4.82 21.11C5.03958 19.1552 5.97168 17.3498 7.43822 16.0388C8.90475 14.7278 10.8029 14.003 12.77 14.003C14.7371 14.003 16.6352 14.7278 18.1018 16.0388C19.5683 17.3498 20.5004 19.1552 20.72 21.11C20.7472 21.3557 20.8644 21.5827 21.0491 21.747C21.2338 21.9114 21.4728 22.0015 21.72 22H21.83C22.0921 21.9698 22.3317 21.8373 22.4966 21.6313C22.6614 21.4252 22.7381 21.1624 22.71 20.9C22.5095 19.0962 21.8219 17.381 20.7208 15.9382C19.6198 14.4954 18.1469 13.3795 16.46 12.71ZM12.75 12C11.9589 12 11.1855 11.7654 10.5277 11.3259C9.86992 10.8864 9.35723 10.2616 9.05448 9.53074C8.75173 8.79983 8.67251 7.99557 8.82686 7.21964C8.9812 6.44372 9.36216 5.73099 9.92157 5.17158C10.481 4.61217 11.1937 4.2312 11.9696 4.07686C12.7456 3.92252 13.5498 4.00173 14.2807 4.30448C15.0116 4.60724 15.6363 5.11993 16.0759 5.77772C16.5154 6.43552 16.75 7.20888 16.75 8C16.75 9.06087 16.3286 10.0783 15.5784 10.8284C14.8283 11.5786 13.8109 12 12.75 12Z" fill="#88889D"/>
</svg>
